<!--
  Licensed to the Apache Software Foundation (ASF) under one
  or more contributor license agreements.  See the NOTICE file
  distributed with this work for additional information
  regarding copyright ownership.  The ASF licenses this file
  to you under the Apache License, Version 2.0 (the
  "License"); you may not use this file except in compliance
  with the License.  You may obtain a copy of the License at

    http://www.apache.org/licenses/LICENSE-2.0

  Unless required by applicable law or agreed to in writing,
  software distributed under the License is distributed on an
  "AS IS" BASIS, WITHOUT WARRANTIES OR CONDITIONS OF ANY
  KIND, either express or implied.  See the License for the
  specific language governing permissions and limitations
  under the License.
-->
<svg width="84" height="106" viewBox="0 0 84 106" fill="none" xmlns="http://www.w3.org/2000/svg">
<path d="M53.3335 2V24.6667C53.3335 26.1696 53.9305 27.6109 54.9932 28.6736C56.0559 29.7363 57.4973 30.3333 59.0002 30.3333H81.6668" stroke="#0F172A" stroke-opacity="0.2" stroke-width="3.5" stroke-linecap="round" stroke-linejoin="round"/>
<path d="M70.3335 104H13.6668C10.661 104 7.77836 102.806 5.65295 100.681C3.52754 98.5551 2.3335 95.6725 2.3335 92.6667V13.3333C2.3335 10.3275 3.52754 7.44487 5.65295 5.31946C7.77836 3.19404 10.661 2 13.6668 2H53.3335L81.6668 30.3333V92.6667C81.6668 95.6725 80.4728 98.5551 78.3474 100.681C76.222 102.806 73.3393 104 70.3335 104Z" stroke="#0F172A" stroke-opacity="0.2" stroke-width="3.5" stroke-linecap="round" stroke-linejoin="round"/>
<path d="M25 36H30.6667" stroke="#0F172A" stroke-opacity="0.2" stroke-width="3.5" stroke-linecap="round" stroke-linejoin="round"/>
<path d="M25 58.6667H59" stroke="#0F172A" stroke-opacity="0.2" stroke-width="3.5" stroke-linecap="round" stroke-linejoin="round"/>
<path d="M25 81.3333H59" stroke="#0F172A" stroke-opacity="0.2" stroke-width="3.5" stroke-linecap="round" stroke-linejoin="round"/>
</svg>
